General
Complete name                    : Bangkok Dangerous.mkv
Format                           : Matroska
File size                        : 1.45 GiB
Duration                         : 1h 34mn
Overall bit rate                 : 2 185 Kbps
Writing application              : HandBrake 0.9.4

Video
ID                               : 1
Format                           : AVC
Duration                         : 1h 34mn
Bit rate                         : 1 693 Kbps
Width                            : 720 pixels
Height                           : 560 pixels
Display aspect ratio             : 16:9
Resolution                       : 8 bits
Colorimetry                      : 4:2:0
Scan type                        : Progressive
Bits/(Pixel*Frame)               : 0.168
Stream size                      : 1.12 GiB (78%)
Writing library                  : x264 core 79

Audio
ID                               : 2
Format                           : AC-3
Format/Info                      : Audio Coding 3
Codec ID                         : A_AC3
Duration                         : 1h 34mn
Bit rate mode                    : Constant
Bit rate                         : 448 Kbps
Channel(s)                       : 6 channels
Channel positions                : Front: L C R, Side: L R, LFE
Sampling rate                    : 48.0 KHz
Stream size                      : 304 MiB (21%)
Language                         : English

Text #1
Language                         : Danish

Text #2
Language                         : Norwegian

Text #3
Language                         : Swedish

Text #4
Language                         : Finnish

Menu
00:00:00.000                     : Chapter  1


